<svg width="900" height="600" viewBox="0 0 900 600" fill="none" xmlns="http://www.w3.org/2000/svg">
  <defs>
    <linearGradient id="bg" x1="0" y1="0" x2="1" y2="1">
      <stop offset="0" stop-color="#f4f7fc" />
      <stop offset="1" stop-color="#dfe9f7" />
    </linearGradient>
    <linearGradient id="desk" x1="0" y1="0" x2="1" y2="0">
      <stop offset="0" stop-color="#ffffff" />
      <stop offset="1" stop-color="#e6eefb" />
    </linearGradient>
  </defs>
  <rect width="900" height="600" rx="36" fill="url(#bg)" />
  <rect x="80" y="330" width="740" height="170" rx="30" fill="url(#desk)" />
  <rect x="180" y="210" width="320" height="200" rx="20" fill="#ffffff" />
  <rect x="200" y="240" width="280" height="18" rx="9" fill="#c7d5eb" />
  <rect x="200" y="270" width="200" height="14" rx="7" fill="#d3e0f3" />
  <rect x="200" y="295" width="240" height="14" rx="7" fill="#d3e0f3" />
  <rect x="550" y="220" width="180" height="140" rx="20" fill="#1f4b7a" />
  <rect x="570" y="245" width="140" height="12" rx="6" fill="#f6b042" />
  <rect x="570" y="270" width="110" height="10" rx="5" fill="#f0f4fb" />
  <rect x="570" y="290" width="90" height="10" rx="5" fill="#f0f4fb" />
  <circle cx="600" cy="390" r="30" fill="#f6b042" />
  <rect x="570" y="420" width="60" height="70" rx="22" fill="#c9d8ee" />
  <circle cx="720" cy="390" r="30" fill="#1f4b7a" />
  <rect x="690" y="420" width="60" height="70" rx="22" fill="#c9d8ee" />
  <rect x="330" y="380" width="170" height="40" rx="20" fill="#d7e4f7" />
</svg>
