<svg width="900" height="600" viewBox="0 0 900 600" fill="none" xmlns="http://www.w3.org/2000/svg">
  <defs>
    <linearGradient id="bg" x1="0" y1="0" x2="1" y2="1">
      <stop offset="0" stop-color="#dbe7f7" />
      <stop offset="1" stop-color="#f7f9fd" />
    </linearGradient>
    <linearGradient id="screen" x1="0" y1="0" x2="1" y2="1">
      <stop offset="0" stop-color="#ffffff" />
      <stop offset="1" stop-color="#e8f0fb" />
    </linearGradient>
  </defs>
  <rect width="900" height="600" rx="36" fill="url(#bg)" />
  <rect x="70" y="70" width="760" height="280" rx="24" fill="url(#screen)" />
  <rect x="110" y="110" width="330" height="200" rx="18" fill="#f1f6fe" />
  <rect x="470" y="110" width="320" height="140" rx="18" fill="#edf3fd" />
  <rect x="470" y="270" width="230" height="40" rx="12" fill="#d8e4f7" />
  <rect x="170" y="400" width="560" height="90" rx="30" fill="#ffffff" />
  <circle cx="240" cy="400" r="26" fill="#1f4b7a" />
  <rect x="210" y="426" width="60" height="60" rx="20" fill="#c9d8ee" />
  <circle cx="450" cy="390" r="30" fill="#f6b042" />
  <rect x="420" y="422" width="60" height="68" rx="22" fill="#d3e0f3" />
  <circle cx="660" cy="400" r="26" fill="#1f4b7a" />
  <rect x="630" y="426" width="60" height="60" rx="20" fill="#c9d8ee" />
  <rect x="270" y="450" width="360" height="12" rx="6" fill="#e2ecfa" />
</svg>
