<svg width="900" height="600" viewBox="0 0 900 600" fill="none" xmlns="http://www.w3.org/2000/svg">
  <defs>
    <linearGradient id="bg" x1="0" y1="0" x2="1" y2="1">
      <stop offset="0" stop-color="#eef3fb" />
      <stop offset="1" stop-color="#d7e4f7" />
    </linearGradient>
    <linearGradient id="table" x1="0" y1="0" x2="1" y2="1">
      <stop offset="0" stop-color="#ffffff" />
      <stop offset="1" stop-color="#e4edfa" />
    </linearGradient>
  </defs>
  <rect width="900" height="600" rx="36" fill="url(#bg)" />
  <circle cx="450" cy="300" r="170" fill="url(#table)" />
  <circle cx="450" cy="300" r="120" fill="#f6b042" opacity="0.18" />
  <circle cx="250" cy="170" r="28" fill="#1f4b7a" />
  <circle cx="650" cy="170" r="28" fill="#f6b042" />
  <circle cx="250" cy="430" r="28" fill="#f6b042" />
  <circle cx="650" cy="430" r="28" fill="#1f4b7a" />
  <rect x="220" y="198" width="60" height="80" rx="22" fill="#c9d8ee" />
  <rect x="620" y="198" width="60" height="80" rx="22" fill="#c9d8ee" />
  <rect x="220" y="458" width="60" height="80" rx="22" fill="#c9d8ee" />
  <rect x="620" y="458" width="60" height="80" rx="22" fill="#c9d8ee" />
  <path d="M450 180V420" stroke="#b7cae8" stroke-width="6" stroke-linecap="round" />
  <path d="M320 300H580" stroke="#b7cae8" stroke-width="6" stroke-linecap="round" />
  <rect x="390" y="250" width="120" height="100" rx="18" fill="#ffffff" />
  <rect x="405" y="270" width="90" height="10" rx="5" fill="#c7d5eb" />
  <rect x="405" y="290" width="70" height="10" rx="5" fill="#c7d5eb" />
  <rect x="405" y="310" width="80" height="10" rx="5" fill="#c7d5eb" />
</svg>
