<svg xmlns="http://www.w3.org/2000/svg" width="135" height="140" viewBox="182 151 135 140">
  <path fill="#ffde59" fill-rule="evenodd" d="M 248.0 162.0 L 242.0 162.0 L 237.0 163.0 L 232.0 164.0 L 227.0 166.0 L 222.0 169.0 L 218.0 172.0 L 214.0 176.0 L 211.0 180.0 L 208.0 184.0 L 206.0 189.0 L 204.0 194.0 L 204.0 199.0 L 204.0 204.0 L 205.0 209.0 L 207.0 214.0 L 209.0 219.0 L 212.0 223.0 L 216.0 227.0 L 220.0 230.0 L 224.0 233.0 L 229.0 235.0 L 234.0 237.0 L 239.0 238.0 L 243.0 238.0 L 246.0 238.0 L 246.0 232.0 L 242.0 232.0 L 238.0 231.0 L 234.0 230.0 L 230.0 228.0 L 227.0 225.0 L 224.0 222.0 L 222.0 218.0 L 220.0 214.0 L 219.0 210.0 L 219.0 206.0 L 219.0 202.0 L 220.0 198.0 L 222.0 194.0 L 224.0 190.0 L 227.0 187.0 L 230.0 184.0 L 234.0 182.0 L 238.0 181.0 L 242.0 180.0 L 246.0 180.0 L 250.0 180.0 L 253.0 181.0 L 253.0 175.0 L 250.0 174.0 L 246.0 173.0 L 243.0 173.0 L 240.0 173.0 L 236.0 173.0 L 232.0 174.0 L 228.0 175.0 L 225.0 177.0 L 222.0 179.0 L 220.0 182.0 L 218.0 185.0 L 217.0 189.0 L 216.0 193.0 L 216.0 197.0 L 216.0 201.0 L 217.0 205.0 L 218.0 209.0 L 220.0 212.0 L 222.0 215.0 L 225.0 218.0 L 228.0 220.0 L 232.0 222.0 L 236.0 223.0 L 240.0 224.0 L 243.0 224.0 L 246.0 224.0 L 246.0 162.0 Z M 223.0 250.0 L 226.0 264.0 L 224.0 265.0 L 222.0 265.0 L 219.0 266.0 L 217.0 266.0 L 214.0 266.0 L 212.0 265.0 L 210.0 264.0 L 209.0 262.0 L 208.0 260.0 L 208.0 258.0 L 208.0 256.0 L 209.0 254.0 L 210.0 252.0 L 212.0 251.0 L 214.0 250.0 L 217.0 249.0 L 219.0 249.0 L 221.0 249.0 Z"/>
  <path fill="#145da0" fill-rule="evenodd" d="M 262.0 176.0 L 262.0 234.0 L 282.0 234.0 L 291.0 232.0 L 297.0 226.0 L 299.0 218.0 L 299.0 211.0 L 297.0 203.0 L 291.0 197.0 L 282.0 195.0 L 270.0 195.0 L 270.0 176.0 Z M 270.0 204.0 L 281.0 204.0 L 285.0 205.0 L 288.0 208.0 L 289.0 212.0 L 289.0 217.0 L 288.0 221.0 L 285.0 224.0 L 281.0 225.0 L 270.0 225.0 Z M 252.0 238.0 L 252.0 245.0 L 252.0 252.0 L 251.0 258.0 L 250.0 264.0 L 248.0 270.0 L 246.0 275.0 L 243.0 280.0 L 239.0 284.0 L 235.0 288.0 L 230.0 291.0 L 225.0 294.0 L 220.0 296.0 L 214.0 298.0 L 208.0 299.0 L 202.0 300.0 L 195.0 300.0 L 188.0 300.0 L 182.0 299.0 L 186.0 292.0 L 193.0 293.0 L 200.0 293.0 L 207.0 292.0 L 213.0 290.0 L 219.0 287.0 L 224.0 283.0 L 228.0 279.0 L 232.0 274.0 L 235.0 268.0 L 237.0 262.0 L 238.0 255.0 L 238.0 248.0 L 238.0 238.0 Z M 200.0 249.0 L 207.0 249.0 L 206.0 254.0 L 200.0 254.0 Z M 196.0 256.0 L 206.0 256.0 L 205.0 261.0 L 196.0 261.0 Z M 193.0 263.0 L 204.0 263.0 L 203.0 268.0 L 193.0 268.0 Z"/>
</svg>
